<svg xmlns="http://www.w3.org/2000/svg" width="800" height="600" viewBox="0 0 800 600" aria-labelledby="title">
  <title>Galería Globos</title>
  <rect width="100%" height="100%" fill="#fafafa"/>
  <g transform="translate(120,100)">
    <defs>
      <linearGradient id="c1" x1="0" y1="0" x2="1" y2="1">
        <stop offset="0" stop-color="#ff8a00"/>
        <stop offset="1" stop-color="#e52e71"/>
      </linearGradient>
      <linearGradient id="c2" x1="0" y1="0" x2="1" y2="1">
        <stop offset="0" stop-color="#22c1c3"/>
        <stop offset="1" stop-color="#fdbb2d"/>
      </linearGradient>
      <linearGradient id="c3" x1="0" y1="0" x2="1" y2="1">
        <stop offset="0" stop-color="#7f00ff"/>
        <stop offset="1" stop-color="#e100ff"/>
      </linearGradient>
    </defs>
    <ellipse cx="100" cy="120" rx="70" ry="90" fill="url(#c1)"/>
    <path d="M100 210 L92 230 L108 230 Z" fill="#e52e71"/>
    <path d="M100 230 C80 330, 60 360, 60 420" stroke="#bbb" fill="none" stroke-width="3"/>
    <ellipse cx="320" cy="120" rx="70" ry="90" fill="url(#c2)"/>
    <path d="M320 210 L312 230 L328 230 Z" fill="#fdbb2d"/>
    <path d="M320 230 C340 330, 360 360, 360 420" stroke="#bbb" fill="none" stroke-width="3"/>
    <ellipse cx="540" cy="120" rx="70" ry="90" fill="url(#c3)"/>
    <path d="M540 210 L532 230 L548 230 Z" fill="#e100ff"/>
    <path d="M540 230 C520 330, 500 360, 500 420" stroke="#bbb" fill="none" stroke-width="3"/>
  </g>
  <text x="50" y="560" font-size="20" font-family="Inter, system-ui, -apple-system, Segoe UI, Roboto, Arial, sans-serif" fill="#777">Reemplaza estas imágenes por tus fotos reales 📸</text>
</svg>